<?xml version="1.0" encoding="UTF-8"?>
<svg xmlns="http://www.w3.org/2000/svg" viewBox="0 0 1280 720">
  <defs>
    <linearGradient id="accentGrad" x1="0%" y1="0%" x2="100%" y2="0%">
      <stop offset="0%" stop-color="#1A5F7A"/>
      <stop offset="100%" stop-color="#3498DB"/>
    </linearGradient>
  </defs>
  <rect x="0" y="0" width="1280" height="720" fill="#FFFFFF"/>
  <rect x="0" y="0" width="1280" height="80" fill="#F5F7FA"/>
  <rect x="0" y="0" width="8" height="720" fill="url(#accentGrad)"/>
  <text x="80" y="50" fill="#1A5F7A" font-family="Microsoft YaHei, Arial, sans-serif" font-size="14" font-weight="bold">01</text>
  <text x="80" y="70" fill="#1A5F7A" font-family="Microsoft YaHei, Arial, sans-serif" font-size="24" font-weight="bold">问题提出</text>
  <line x1="80" y1="95" x2="400" y2="95" stroke="#E0E6ED" stroke-width="1"/>
  <rect x="80" y="130" width="540" height="220" rx="12" fill="#F5F7FA"/>
  <circle cx="120" cy="180" r="24" fill="#1A5F7A"/>
  <text x="120" y="187" text-anchor="middle" fill="#FFFFFF" font-family="Microsoft YaHei, Arial, sans-serif" font-size="16" font-weight="bold">1</text>
  <text x="160" y="175" fill="#2C3E50" font-family="Microsoft YaHei, Arial, sans-serif" font-size="18" font-weight="bold">深度哈希方法优势</text>
  <text x="120" y="210" fill="#7F8C8D" font-family="Microsoft YaHei, Arial, sans-serif" font-size="14">存储效率高、检索速度快</text>
  <text x="120" y="235" fill="#7F8C8D" font-family="Microsoft YaHei, Arial, sans-serif" font-size="14">广泛应用于大规模图像检索</text>
  <rect x="660" y="130" width="540" height="220" rx="12" fill="#F5F7FA"/>
  <circle cx="700" cy="180" r="24" fill="#E74C3C"/>
  <text x="700" y="187" text-anchor="middle" fill="#FFFFFF" font-family="Microsoft YaHei, Arial, sans-serif" font-size="16" font-weight="bold">2</text>
  <text x="740" y="175" fill="#2C3E50" font-family="Microsoft YaHei, Arial, sans-serif" font-size="18" font-weight="bold">现有方法的局限性</text>
  <text x="700" y="210" fill="#7F8C8D" font-family="Microsoft YaHei, Arial, sans-serif" font-size="14">默认数据分布相对均衡</text>
  <text x="700" y="235" fill="#7F8C8D" font-family="Microsoft YaHei, Arial, sans-serif" font-size="14">长尾数据上训练不足</text>
  <rect x="80" y="380" width="540" height="220" rx="12" fill="#F5F7FA"/>
  <circle cx="120" cy="430" r="24" fill="#3498DB"/>
  <text x="120" y="437" text-anchor="middle" fill="#FFFFFF" font-family="Microsoft YaHei, Arial, sans-serif" font-size="16" font-weight="bold">3</text>
  <text x="160" y="425" fill="#2C3E50" font-family="Microsoft YaHei, Arial, sans-serif" font-size="18" font-weight="bold">尾部类别性能下降</text>
  <text x="120" y="460" fill="#7F8C8D" font-family="Microsoft YaHei, Arial, sans-serif" font-size="14">尾部类别检索精度低</text>
  <text x="120" y="485" fill="#7F8C8D" font-family="Microsoft YaHei, Arial, sans-serif" font-size="14">实际应用需求难以满足</text>
  <rect x="660" y="380" width="540" height="220" rx="12" fill="#1A5F7A" opacity="0.1"/>
  <text x="700" y="440" fill="#1A5F7A" font-family="Microsoft YaHei, Arial, sans-serif" font-size="20" font-weight="bold">核心挑战</text>
  <text x="700" y="480" fill="#2C3E50" font-family="Microsoft YaHei, Arial, sans-serif" font-size="16">如何提升长尾数据下</text>
  <text x="700" y="510" fill="#2C3E50" font-family="Microsoft YaHei, Arial, sans-serif" font-size="16">尾部类别的检索性能？</text>
  <line x1="80" y="680" x2="1200" y2="680" stroke="#E0E6ED" stroke-width="1"/>
  <text x="640" y="695" text-anchor="middle" fill="#95A5A6" font-family="Microsoft YaHei, Arial, sans-serif" font-size="12">— 4 / 16 —</text>
</svg>