<?xml version="1.0" encoding="UTF-8"?>
<svg xmlns="http://www.w3.org/2000/svg" viewBox="0 0 1280 720">
  <defs>
    <linearGradient id="accentGrad" x1="0%" y1="0%" x2="100%" y2="0%">
      <stop offset="0%" stop-color="#1A5F7A"/>
      <stop offset="100%" stop-color="#3498DB"/>
    </linearGradient>
  </defs>
  <rect x="0" y="0" width="1280" height="720" fill="#FFFFFF"/>
  <rect x="0" y="0" width="1280" height="80" fill="#F5F7FA"/>
  <rect x="0" y="0" width="8" height="720" fill="url(#accentGrad)"/>
  <text x="80" y="50" fill="#1A5F7A" font-family="Microsoft YaHei, Arial, sans-serif" font-size="14" font-weight="bold">03</text>
  <text x="80" y="70" fill="#1A5F7A" font-family="Microsoft YaHei, Arial, sans-serif" font-size="24" font-weight="bold">向心式哈希学习框架</text>
  <line x1="80" y1="95" x2="500" y2="95" stroke="#E0E6ED" stroke-width="1"/>
  <rect x="80" y="130" width="1120" height="120" rx="12" fill="#F5F7FA"/>
  <text x="120" y="170" fill="#2C3E50" font-family="Microsoft YaHei, Arial, sans-serif" font-size="18" font-weight="bold">模型结构</text>
  <rect x="120" y="195" width="140" height="40" rx="8" fill="#1A5F7A"/>
  <text x="190" y="222" text-anchor="middle" fill="#FFFFFF" font-family="Microsoft YaHei, Arial, sans-serif" font-size="14" font-weight="bold">ResNet34</text>
  <polygon points="270,215 290,215 280,205" fill="#7F8C8D"/>
  <rect x="300" y="195" width="100" height="40" rx="8" fill="#3498DB"/>
  <text x="350" y="222" text-anchor="middle" fill="#FFFFFF" font-family="Microsoft YaHei, Arial, sans-serif" font-size="14" font-weight="bold">Hash Layer</text>
  <polygon points="410,215 430,215 420,205" fill="#7F8C8D"/>
  <rect x="440" y="195" width="100" height="40" rx="8" fill="#2ECC71"/>
  <text x="490" y="222" text-anchor="middle" fill="#FFFFFF" font-family="Microsoft YaHei, Arial, sans-serif" font-size="14" font-weight="bold">Classifier</text>
  <polygon points="550,215 570,215 560,205" fill="#7F8C8D"/>
  <text x="650" y="220" fill="#7F8C8D" font-family="Microsoft YaHei, Arial, sans-serif" font-size="14">特征提取</text>
  <text x="650" y="240" fill="#7F8C8D" font-family="Microsoft YaHei, Arial, sans-serif" font-size="14">哈希编码</text>
  <text x="650" y="260" fill="#7F8C8D" font-family="Microsoft YaHei, Arial, sans-serif" font-size="14">分类预测</text>
  <rect x="80" y="280" width="540" height="180" rx="12" fill="#1A5F7A" opacity="0.1"/>
  <text x="120" y="320" fill="#1A5F7A" font-family="Microsoft YaHei, Arial, sans-serif" font-size="18" font-weight="bold">向心损失 (Centripetal Loss)</text>
  <text x="120" y="360" fill="#2C3E50" font-family="Microsoft YaHei, Arial, sans-serif" font-size="16">核心思想：</text>
  <text x="120" y="395" fill="#7F8C8D" font-family="Microsoft YaHei, Arial, sans-serif" font-size="14">推动同类别样本向类别中心聚集</text>
  <text x="120" y="425" fill="#7F8C8D" font-family="Microsoft YaHei, Arial, sans-serif" font-size="14">增强类内紧凑性</text>
  <rect x="660" y="280" width="540" height="180" rx="12" fill="#3498DB" opacity="0.1"/>
  <text x="700" y="320" fill="#3498DB" font-family="Microsoft YaHei, Arial, sans-serif" font-size="18" font-weight="bold">总损失函数</text>
  <text x="700" y="370" fill="#2C3E50" font-family="Consolas, monospace" font-size="22">L = L_hash + α × L_cls</text>
  <text x="700" y="410" fill="#7F8C8D" font-family="Microsoft YaHei, Arial, sans-serif" font-size="14">L_hash: 向心损失</text>
  <text x="700" y="440" fill="#7F8C8D" font-family="Microsoft YaHei, Arial, sans-serif" font-size="14">L_cls: 分类损失</text>
  <line x1="80" y="680" x2="1200" y2="680" stroke="#E0E6ED" stroke-width="1"/>
  <text x="640" y="695" text-anchor="middle" fill="#95A5A6" font-family="Microsoft YaHei, Arial, sans-serif" font-size="12">— 9 / 16 —</text>
</svg>